<?xml version="1.0" encoding="utf-8"?>
<!-- Generator: Adobe Illustrator 24.2.3, SVG Export Plug-In . SVG Version: 6.00 Build 0)  -->
<svg version="1.1"
	 id="svg2" xmlns:cc="http://creativecommons.org/ns#" xmlns:dc="http://purl.org/dc/elements/1.1/" xmlns:inkscape="http://www.inkscape.org/namespaces/inkscape" xmlns:rdf="http://www.w3.org/1999/02/22-rdf-syntax-ns#" xmlns:sodipodi="http://sodipodi.sourceforge.net/DTD/sodipodi-0.dtd" xmlns:svg="http://www.w3.org/2000/svg"
	 xmlns="http://www.w3.org/2000/svg" xmlns:xlink="http://www.w3.org/1999/xlink" x="0px" y="0px" viewBox="0 0 591.6 755.4"
	 style="enable-background:new 0 0 591.6 755.4;" xml:space="preserve">
<style type="text/css">
	.st0{fill:#9A2828;}
</style>
<sodipodi:namedview  bordercolor="#666666" borderopacity="1.0" id="base" inkscape:current-layer="svg2" inkscape:cx="76.597541" inkscape:cy="388.34472" inkscape:pageopacity="0.0" inkscape:pageshadow="2" inkscape:window-height="719" inkscape:window-width="951" inkscape:window-x="0" inkscape:window-y="25" inkscape:zoom="0.63281167" pagecolor="#ffffff" showgrid="false">
	</sodipodi:namedview>
<g id="g2427">
	<path id="path10" class="st0" d="M13.6,66.9c0.2,7.3,1.4,12.8,2.5,12.4c0.9-0.7,1.6,3,0.9,8c-0.5,5,0.2,8.7,1.1,8
		c1.1-0.7,1.8,3,1.1,8c-0.5,5,0.2,8.7,1.4,8c0.9-0.7,1.6,2.3,0.9,6.9c-0.5,4.6,0,7.6,1.1,6.9c1.4-0.7,1.8,2.3,1.1,6.9
		c-0.5,4.6-0.2,7.8,0.7,7.3c2.1-1.4,4.8,28.2,3,31.4c-1.1,1.6-0.5,1.8,1.4,0.7c2.1-1.4,2.5,0.5,1.8,7.6c-0.5,5-0.2,8.9,0.7,8.5
		c2.1-1.4,7.1,42,5.3,44.9c-1.1,1.8-0.7,2.1,1.4,0.9c2.1-1.4,2.5,0.5,1.8,7.6c-0.5,5-0.2,8.9,0.7,8.3c1.8-0.9,4.8,20.9,5.3,37.4
		c0,6.4,0.9,11.2,2.1,10.5c0.9-0.5,1.6,1.8,1.6,5.5c0,3.4,0.9,9.9,2.1,14c1.4,4.1,1.4,6.9,0.7,6.4c-0.9-0.7-1.8,0.9-1.8,3.2
		s0.9,3.7,2.3,3c1.1-0.9,1.6,3,0.9,9.6c-0.9,6.6-0.5,9.6,0.7,7.8c1.4-2.3,2.1-0.9,2.1,4.1c0,3.9,0.9,8,2.3,8.7
		c1.1,0.7,2.3,2.5,2.3,3.7c0,1.4-1.4,1.6-2.8,0.7c-2.3-1.4-2.3-1.1-0.2,1.8c1.6,1.8,2.1,4.4,1.1,5.3c-0.9,1.1-0.2,1.1,1.6,0
		c2.5-1.4,3-0.7,2.1,3c-0.9,3.2-0.5,4.6,0.9,3.7c1.6-1.1,2.1,0.5,1.4,4.4c-0.7,3.7-0.2,5.5,1.1,4.6c1.4-0.9,1.8,0.9,1.1,4.8
		c-0.7,3.4-0.7,5.5,0,4.8c1.1-1.1,5,4.8,9.9,14.9c1.4,3.2,3.4,7.6,4.6,9.6c1.1,2.5,1.1,6.4-0.5,10.3c-2.1,5.5-1.6,6.9,3.4,11
		c3.2,2.8,6,5.7,6,7.1c0,1.4-4.4,6.2-9.9,10.8c-9.6,8-10.8,11-10.8,25.5c-0.2,3.7-2.3,10.3-4.8,14.4c-3.4,5.3-4.6,10.5-3.9,16.5
		c0.5,5-0.2,8.5-1.1,7.8c-1.1-0.7-0.9,0.9,0.5,3.2c1.4,2.5,1.8,5.3,1.1,6c-0.7,0.7,0,1.8,1.6,3c1.8,1.1,2.3,0.7,0.9-1.6
		c-1.4-2.5-1.1-2.8,1.1-0.5c1.8,1.6,3.2,6.4,3.2,10.8c0.2,4.4,1.1,7.3,2.3,6.4c1.1-0.7,1.4,1.1,0.7,4.4c-0.9,3-1.6,6.4-1.6,7.3
		c0,1.1-0.9,1.4-1.8,0.7c-0.9-0.5-2.1,1.1-2.1,3.9c-0.5,4.1,0,4.4,1.8,1.6c2.1-2.8,2.3-2.5,0.9,1.1c-3,9.4-5.3,24.5-3.9,29.1
		c0.9,3.7,0.5,4.4-2.1,2.8c-2.1-1.1-1.8,0,0.9,3.7c7.1,10.1,18.6,38.1,21.6,52.7c3,15.4,3,15.4,38.1,17.2
		c17.9,0.9,35.5,2.1,39.4,2.3c3.9,0.2,19.3,1.4,34.4,2.1c15.1,0.9,31.2,2.1,35.5,2.5c4.4,0.5,20.4,1.6,35.5,2.3
		c15.1,0.7,39.9,2.3,55,3.4c23.8,1.8,61.7,4.1,91.7,5.7c6.2,0.2,8.9,1.4,8.5,3.4c-0.5,1.6,0.5,6,2.1,9.6c2.1,5,2.1,7.1-0.5,10.3
		c-2.3,2.5-2.3,3.2-0.2,2.1c1.6-0.9,2.8-0.5,2.8,1.6c0,2.1,2.8,3.2,8,3.2c6.6,0,8-0.9,8.3-4.8c0-2.8,0.9-10.1,1.8-16.7
		c1.1-7.6,0.9-11.5-0.5-10.5c-1.4,0.9-1.8-0.7-1.1-3.4c0.9-2.8,0.5-4.6-0.7-3.7c-1.1,0.7-2.1-0.9-2.1-3.7c0-3.2,0.9-4.4,3-3.2
		c1.8,1.4,1.8,0.7-0.2-2.1c-5-6.2-0.7-14.7,7.1-13.3c0.9,0,1.6-1.4,1.6-3.2c0-2.1,2.3-3.4,6-3.4c3.2,0,5.3,0.9,4.6,1.8
		c-0.5,0.9,1.1,2.1,3.9,2.1c2.8,0.2,5.3,1.6,5.7,3c0.5,1.1,1.8,1.6,3,0.9c1.4-0.7,3.4-0.2,5,0.9c4.8,3.9,25.2,7.3,28.4,4.6
		c1.6-1.4,2.3-3.4,1.4-4.6c-2.8-4.8-2.3-18.3,0.9-21.6c3-2.8,2.8-3.2-0.2-3.2c-5.3,0-4.6-3,2.1-9.2c4.4-4.1,5-6,3-7.3
		c-2.3-1.4-2.3-1.8,0-1.8c1.6,0,2.3-1.1,1.6-2.3c-3.9-6.4-3.2-17.9,1.6-28c5-10.3,13.3-18.1,10.1-9.4c-1.4,3.2-0.9,3.4,1.1,1.4
		c2.8-2.8,0.7-8.5-2.5-6.4c-1.1,0.7-1.6-3.2-1.1-8.5c0.5-5.5,2.1-10.1,3.4-10.5c1.8-0.7,1.8-1.8,0-3.9c-3-3.4,0.9-6.9,7.8-6.9
		c3,0,4.6-1.8,5-6.4c0.2-3.4-0.5-6.2-1.6-6.2c-1.4,0-1.6-1.1-0.7-2.5c0.9-1.8,2.1-1.6,3.4,0.5c1.1,1.8,2.1,2.1,2.1,0.9
		c0-1.4-1.1-3.7-2.5-5c-3.2-3.2,5.7-9.6,12.6-8.9c8,0.9,7.3-7.6-0.9-10.3c-8-3-10.5-8.5-5.7-13.3c2.5-2.5,3.4-2.8,3.4-0.7
		c0,1.6,0.9,2.5,2.1,1.8c1.1-0.7,4.8,0.2,8.5,2.1c7.1,3.7,12.8,1.8,7.1-2.3c-5.3-3.7-4.8-7.3,0.7-9.2c2.5-0.7,4.4-2.5,3.9-3.9
		c-0.9-5.3-7.3-11-12.4-11c-7.3,0-12.8-6.4-11.7-14c0.7-3.4,0.2-6-0.9-5.3c-0.9,0.7-1.8-1.4-1.8-4.6s1.1-6.4,2.3-7.1
		c1.4-0.9,0.5-3-2.1-5.3c-2.5-2.1-5-6.9-5.5-10.3c-0.9-7.8-11.7-19.7-20.4-22.7c-7.6-2.8-9.4-8.3-9.6-28.4
		c-0.2-9.6-1.1-13.8-2.8-13.1c-2.3,0.9-9.4-14-8.5-17.7c1.8-8.5,1.6-10.3-2.8-10.3c-2.5,0-4.4-1.4-3.9-3c0.2-1.8-0.5-2.5-1.6-1.6
		c-4.8,3-20.9-8.3-29.8-20.9c-5-7.1-8.7-13.8-8.3-14.7c0.7-0.9-0.7-1.6-3-1.4c-3,0.2-4.1-1.8-4.6-8.7c-0.5-5-2.5-10.3-4.4-11.7
		c-2.1-1.6-3-3.7-2.3-5c0.7-1.1-3.2-4.6-8.9-7.3c-5.5-2.8-9.6-6.2-8.9-7.3c0.9-1.1,0-1.4-1.8-0.7c-3.9,1.4-11.7-11.9-9.2-15.8
		c0.7-1.4,0.2-1.6-1.1-0.7c-1.6,0.9-2.8,0.5-2.8-0.9c0-3.2-10.8-13.3-19-17.4c-3.7-2.1-5.7-4.6-4.8-6c0.9-1.6,0.7-1.8-0.9-0.9
		c-3,1.8-14.7-7.6-12.8-10.5c0.7-1.1,0.2-1.6-0.9-1.4c-1.4,0.5-2.5-0.2-2.8-1.6c-0.2-1.4-2.3-5.5-4.8-9.4c-2.3-3.9-3.4-7.8-2.5-8.7
		c0.9-0.9,0.7-1.6-0.7-1.4c-5.5,1.1-8.3-0.2-7.8-4.1c0.7-4.8-2.1-11.7-6.6-17c-1.8-2.3-2.8-5.5-1.8-7.6c0.7-2.1,0.5-3-0.9-2.3
		c-2.8,1.6-7.6-7.6-6-11.5c1.4-3.7-5.5-6.6-15.8-6.9c-4.4,0-6.6-1.1-6.2-3c0.2-1.8-0.5-2.5-1.6-1.8s-5-1.6-8.7-5.5
		c-3.4-3.7-7.1-6.9-8-6.9c-4.4,0-19.9-13.1-20.2-16.7c0-7.8,6.2-18.8,15.4-27.1c5-4.6,9.9-9.6,10.8-11c1.1-1.8-36.5-2.5-144-2.5
		H13.2L13.6,66.9z"/>
	<path id="path12" class="st0" d="M579.3,485.6c0,1.8,0.9,3.4,2.3,3.4c1.4,0,2.3-1.6,2.3-3.4c0-1.8-0.9-3.4-2.3-3.4
		C580.2,482.2,579.3,483.8,579.3,485.6z"/>
	<path id="path14" class="st0" d="M548.4,537c-0.7,1.1-0.5,2.8,0.7,3.4s2.1-0.2,2.1-2.1C551.1,534.5,550.4,534,548.4,537z"/>
	<path id="path16" class="st0" d="M537.6,560.6c-4.8,5.7-5,7.8-1.8,9.9c1.4,0.7,2.3,0,2.3-1.8s1.6-4.6,3.4-6.2
		c3.7-3,4.6-6.9,1.8-6.9C542.2,555.6,539.6,557.8,537.6,560.6z"/>
	<path id="path18" class="st0" d="M524.3,592.5c0,2.3-1.1,4.4-2.5,4.4s-2.1,2.3-1.6,5c0.5,3,1.6,5.3,3,5.3c1.4,0,3.2-2.3,4.6-5.3
		c1.1-2.8,3-5,3.9-5c3.9,0,1.6-6.4-2.8-7.6C525.4,588.3,524.3,589.3,524.3,592.5z"/>
	<path id="path20" class="st0" d="M515.3,645.7c-1.6,2.1-2.3,5.7-1.4,7.8c1.4,3.9,1.6,3.9,3.7,0c1.4-2.3,2.1-5.7,1.6-7.8
		C518.5,642.2,518.3,642.2,515.3,645.7z"/>
</g>
</svg>
